{
.appVersion = "965";
copyright = "Copyright 2017 Google Inc. All Rights Reserved.";
customParameters = (
{
name = glyphOrder;
value = (
.notdef,
NULL,
CR,
space,
uni1C50,
uni1C51,
uni1C52,
uni1C53,
uni1C54,
uni1C55,
uni1C56,
uni1C57,
uni1C58,
uni1C59,
uni1C5A,
uni1C5B,
uni1C5C,
uni1C5D,
uni1C5E,
uni1C5F,
uni1C60,
uni1C61,
uni1C62,
uni1C63,
uni1C64,
uni1C65,
uni1C66,
uni1C67,
uni1C68,
uni1C69,
uni1C6A,
uni1C6B,
uni1C6C,
uni1C6D,
uni1C6E,
uni1C6F,
uni1C70,
uni1C71,
uni1C72,
uni1C73,
uni1C74,
uni1C75,
uni1C76,
uni1C77,
uni1C78,
uni1C79,
uni1C7A,
uni1C7B,
uni1C7C,
uni1C7D,
uni1C7E,
uni1C7F,
uni00A0
);
},
{
name = description;
value = "Designed by Monotype design team.";
},
{
name = license;
value = "This Font Software is licensed under the SIL Open Font License, Version 1.1. This Font Software is distributed on an \"AS IS\" BASIS, WITHOUT WARRANTIES OR CONDITIONS OF ANY KIND, either express or implied. See the SIL Open Font License for the specific language, permissions and limitations governing your use of this Font Software.";
},
{
name = licenseURL;
value = "http://scripts.sil.org/OFL";
},
{
name = vendorID;
value = GOOG;
},
{
name = unicodeRanges;
value = (
0,
1,
114
);
},
{
name = trademark;
value = "Noto is a trademark of Google Inc.";
},
{
name = "Has WWS Names";
value = 1;
},
{
name = versionString;
value = "Version 1.900";
},
{
name = fsType;
value = (
);
},
{
name = codePageRanges;
value = (
"1252"
);
}
);
date = "2017-01-27 17:16:32 +0000";
designer = "Monotype Design Team";
designerURL = "http://www.monotype.com/studio";
disablesAutomaticAlignment = 1;
disablesNiceNames = 1;
familyName = "Noto Sans Ol Chiki";
fontMaster = (
{
alignmentZones = (
"{1069, 15}",
"{714, 15}",
"{536, 15}",
"{0, -15}",
"{-293, -15}"
);
ascender = 1069;
capHeight = 714;
customParameters = (
{
name = typoAscender;
value = 1069;
},
{
name = typoDescender;
value = -293;
},
{
name = typoLineGap;
value = 0;
},
{
name = winAscent;
value = 1069;
},
{
name = winDescent;
value = 293;
},
{

glyphs = (
{
glyphname = .notdef;
lastChange = "2017-02-01 17:11:38 +0000";
layers = (
{
hints = (
{
origin = "{0, 0}";
target = "{1, 3}";
},
{
origin = "{1, 1}";
target = "{0, 2}";
},
{
horizontal = 1;
origin = "{0, 0}";
target = "{1, 3}";
},
{
horizontal = 1;
origin = "{1, 0}";
target = "{0, 3}";
}
);
layerId = UUID0;
paths = (
{
closed = 1;
nodes = (
"505 0 LINE",
"505 714 LINE",
"94 714 LINE",
"94 0 LINE"
);
},
{
closed = 1;
nodes = (
"145 663 LINE",
"454 663 LINE",
"454 51 LINE",
"145 51 LINE"
);
}
);
width = 600;
}
);
},
{
glyphname = uni1C50;
lastChange = "2017-02-01 17:11:38 +0000";
layers = (
{
layerId = UUID0;
paths = (
{
closed = 1;
nodes = (
"456 -10 OFFCURVE",
"523 127 OFFCURVE",
"523 358 CURVE SMOOTH",
"523 590 OFFCURVE",
"445 725 OFFCURVE",
"285 725 CURVE SMOOTH",
"114 725 OFFCURVE",
"49 589 OFFCURVE",
"49 358 CURVE SMOOTH",
"49 127 OFFCURVE",
"124 -10 OFFCURVE",
"285 -10 CURVE SMOOTH"
);
},
{
closed = 1;
nodes = (
"177 65 OFFCURVE",
"137 162 OFFCURVE",
"137 358 CURVE SMOOTH",
"137 553 OFFCURVE",
"177 650 OFFCURVE",
"285 650 CURVE SMOOTH",
"392 650 OFFCURVE",
"434 553 OFFCURVE",
"434 358 CURVE SMOOTH",
"434 161 OFFCURVE",
"392 65 OFFCURVE",
"285 65 CURVE SMOOTH"
);
}
);
width = 572;
}
);
unicode = 1C50;
},
{
glyphname = uni1C51;
lastChange = "2017-02-01 17:11:38 +0000";
layers = (
{
layerId = UUID0;
paths = (
{
closed = 1;
nodes = (
"461 81 LINE",
"239 171 OFFCURVE",
"144 368 OFFCURVE",
"144 564 CURVE",
"461 337 LINE",
"461 714 LINE",
"375 714 LINE",
"375 488 LINE",
"47 724 LINE",
"47 342 OFFCURVE",
"125 109 OFFCURVE",
"461 -10 CURVE"
);
}
);
width = 515;
}
);
unicode = 1C51;
},
{
glyphname = uni1C52;
lastChange = "2017-02-01 17:11:38 +0000";
layers = (
{
layerId = UUID0;
paths = (
{
closed = 1;
nodes = (
"437 -9 OFFCURVE",
"491 121 OFFCURVE",
"500 145 CURVE",
"419 162 LINE",
"409 133 OFFCURVE",
"369 66 OFFCURVE",
"280 66 CURVE SMOOTH",
"200 66 OFFCURVE",
"133 109 OFFCURVE",
"133 195 CURVE SMOOTH",
"133 228 OFFCURVE",
"192 287 OFFCURVE",
"212 307 CURVE SMOOTH",
"361 457 LINE SMOOTH",
"373 470 OFFCURVE",
"432 530 OFFCURVE",
"432 608 CURVE SMOOTH",
"432 674 OFFCURVE",
"389 725 OFFCURVE",
"288 725 CURVE SMOOTH",
"186 725 OFFCURVE",
"145 662 OFFCURVE",
"145 607 CURVE SMOOTH",
"145 546 OFFCURVE",
"205 503 OFFCURVE",
"261 474 CURVE",
"144 356 LINE SMOOTH",
"95 307 OFFCURVE",
"45 253 OFFCURVE",
"45 195 CURVE SMOOTH",
"45 55 OFFCURVE",
"161 -9 OFFCURVE",
"280 -9 CURVE SMOOTH"
);
},
{
closed = 1;
nodes = (
"287 535 OFFCURVE",
"228 572 OFFCURVE",
"228 606 CURVE SMOOTH",
"228 635 OFFCURVE",
"249 657 OFFCURVE",
"288 657 CURVE SMOOTH",
"334 657 OFFCURVE",
"349 627 OFFCURVE",
"349 603 CURVE SMOOTH",
"349 556 OFFCURVE",
"321 529 OFFCURVE",
"309 517 CURVE"
);
}
);
width = 513;
}
);
unicode = 1C52;
},
{
glyphname = uni1C53;
lastChange = "2017-02-01 17:11:38 +0000";
layers = (
{
layerId = UUID0;
paths = (
{
closed = 1;
nodes = (
"467 81 LINE",
"304 113 OFFCURVE",
"144 180 OFFCURVE",
"144 288 CURVE SMOOTH",
"144 340 OFFCURVE",
"197 403 OFFCURVE",
"234 444 CURVE",
"467 337 LINE",
"467 714 LINE",
"381 714 LINE",
"381 456 LINE",
"287 499 LINE",
"303 515 OFFCURVE",
"345 548 OFFCURVE",
"345 608 CURVE SMOOTH",
"345 673 OFFCURVE",
"288 725 OFFCURVE",
"214 725 CURVE SMOOTH",
"129 725 OFFCURVE",
"80 664 OFFCURVE",
"80 602 CURVE SMOOTH",
"80 529 OFFCURVE",
"141 497 OFFCURVE",
"166 479 CURVE",
"135 445 OFFCURVE",
"56 369 OFFCURVE",
"56 289 CURVE SMOOTH",
"56 125 OFFCURVE",
"262 45 OFFCURVE",
"467 -10 CURVE"
);
},
{
closed = 1;
nodes = (
"208 536 OFFCURVE",
"157 567 OFFCURVE",
"157 603 CURVE SMOOTH",
"157 628 OFFCURVE",
"177 657 OFFCURVE",
"212 657 CURVE SMOOTH",
"245 657 OFFCURVE",
"267 634 OFFCURVE",
"267 608 CURVE SMOOTH",
"267 573 OFFCURVE",
"229 540 OFFCURVE",
"219 530 CURVE"
);
}
);
width = 521;
}
);
unicode = 1C53;
},
{
glyphname = uni1C54;
lastChange = "2017-02-01 17:11:38 +0000";
layers = (
{
layerId = UUID0;
paths = (
{
closed = 1;
nodes = (
"393 -10 OFFCURVE",
"448 72 OFFCURVE",
"448 145 CURVE SMOOTH",
"448 222 OFFCURVE",
"416 270 OFFCURVE",
"405 289 CURVE",
"397 280 OFFCURVE",
"374 250 OFFCURVE",
"331 250 CURVE SMOOTH",
"261 250 OFFCURVE",
"182 359 OFFCURVE",
"156 430 CURVE",
"174 508 OFFCURVE",
"274 621 OFFCURVE",
"438 635 CURVE",
"438 725 LINE",
"260 708 OFFCURVE",
"49 571 OFFCURVE",
"49 297 CURVE SMOOTH",
"49 135 OFFCURVE",
"121 -10 OFFCURVE",
"272 -10 CURVE SMOOTH"
);
},
{
closed = 1;
nodes = (
"167 60 OFFCURVE",
"132 195 OFFCURVE",
"132 292 CURVE SMOOTH",
"132 309 OFFCURVE",
"133 325 OFFCURVE",
"135 339 CURVE",
"160 285 OFFCURVE",
"243 182 OFFCURVE",
"310 182 CURVE SMOOTH",
"342 182 OFFCURVE",
"359 191 OFFCURVE",
"362 193 CURVE",
"364 188 OFFCURVE",
"371 171 OFFCURVE",
"371 149 CURVE SMOOTH",
"371 119 OFFCURVE",
"353 60 OFFCURVE",
"273 60 CURVE SMOOTH"
);
}
);
width = 483;
}
);
unicode = 1C54;
},
{
glyphname = uni1C55;
lastChange = "2017-02-01 17:11:38 +0000";
layers = (
{
layerId = UUID0;
paths = (
{
closed = 1;
nodes = (
"439 -10 OFFCURVE",
"515 104 OFFCURVE",
"515 203 CURVE",
"437 203 OFFCURVE",
"328 222 OFFCURVE",
"328 320 CURVE SMOOTH",
"328 423 OFFCURVE",
"418 463 OFFCURVE",
"486 476 CURVE",
"463 555 LINE",
"440 551 OFFCURVE",
"243 511 OFFCURVE",
"243 320 CURVE SMOOTH",
"243 194 OFFCURVE",
"350 146 OFFCURVE",
"425 146 CURVE",
"411 115 OFFCURVE",
"381 65 OFFCURVE",
"308 65 CURVE SMOOTH",
"208 65 OFFCURVE",
"138 153 OFFCURVE",
"138 316 CURVE SMOOTH",
"138 496 OFFCURVE",
"262 642 OFFCURVE",
"286 677 CURVE",
"214 725 LINE",
"176 678 OFFCURVE",
"49 501 OFFCURVE",
"49 316 CURVE SMOOTH",
"49 119 OFFCURVE",
"160 -10 OFFCURVE",
"308 -10 CURVE SMOOTH"
);
}
);
width = 551;
}
);
unicode = 1C55;
},
{
glyphname = uni1C56;
lastChange = "2017-02-01 17:11:38 +0000";
layers = (
{
layerId = UUID0;
paths = (
{
closed = 1;
nodes = (
"472 52 LINE",
"427 72 OFFCURVE",
"137 207 OFFCURVE",
"137 399 CURVE SMOOTH",
"137 482 OFFCURVE",
"170 536 OFFCURVE",
"178 546 CURVE",
"208 487 OFFCURVE",
"252 425 OFFCURVE",
"341 425 CURVE SMOOTH",
"435 425 OFFCURVE",
"495 501 OFFCURVE",
"495 573 CURVE SMOOTH",
"495 660 OFFCURVE",
"434 725 OFFCURVE",
"336 725 CURVE SMOOTH",
"270 725 OFFCURVE",
"206 683 OFFCURVE",
"199 677 CURVE",
"185 704 OFFCURVE",
"178 719 OFFCURVE",
"173 730 CURVE",
"104 692 LINE",
"140 627 LINE",
"100 588 OFFCURVE",
"48 497 OFFCURVE",
"48 402 CURVE SMOOTH",
"48 195 OFFCURVE",
"274 49 OFFCURVE",
"412 -10 CURVE"
);
},
{
closed = 1;
nodes = (
"285 496 OFFCURVE",
"249 573 OFFCURVE",
"231 609 CURVE",
"239 617 OFFCURVE",
"289 653 OFFCURVE",
"334 653 CURVE SMOOTH",
"380 653 OFFCURVE",
"415 616 OFFCURVE",
"415 576 CURVE SMOOTH",
"415 534 OFFCURVE",
"383 496 OFFCURVE",
"341 496 CURVE SMOOTH"
);
}
);
width = 506;
}
);
unicode = 1C56;
},
{
glyphname = uni1C57;
lastChange = "2017-02-01 17:11:38 +0000";
layers = (
{
layerId = UUID0;
paths = (
{
closed = 1;
nodes = (
"403 -10 OFFCURVE",
"474 91 OFFCURVE",
"495 140 CURVE",
"410 158 LINE",
"405 142 OFFCURVE",
"358 65 OFFCURVE",
"272 65 CURVE SMOOTH",
"186 65 OFFCURVE",
"140 125 OFFCURVE",
"140 195 CURVE SMOOTH",
"140 231 OFFCURVE",
"172 260 OFFCURVE",
"198 286 CURVE SMOOTH",
"351 440 LINE SMOOTH",
"369 459 OFFCURVE",
"453 533 OFFCURVE",
"453 599 CURVE SMOOTH",
"453 680 OFFCURVE",
"397 725 OFFCURVE",
"305 725 CURVE SMOOTH",
"228 725 OFFCURVE",
"183 674 OFFCURVE",
"160 640 CURVE",
"85 719 LINE",
"32 668 LINE",
"198 496 LINE",
"251 547 LINE",
"214 585 LINE",
"228 615 OFFCURVE",
"265 650 OFFCURVE",
"305 650 CURVE SMOOTH",
"344 650 OFFCURVE",
"365 628 OFFCURVE",
"365 599 CURVE SMOOTH",
"365 564 OFFCURVE",
"313 516 OFFCURVE",
"290 494 CURVE SMOOTH",
"123 329 LINE SMOOTH",
"104 311 OFFCURVE",
"51 260 OFFCURVE",
"51 195 CURVE SMOOTH",
"51 84 OFFCURVE",
"130 -10 OFFCURVE",
"272 -10 CURVE SMOOTH"
);
}
);
width = 514;
}
);
unicode = 1C57;
},
{
glyphname = uni1C58;
lastChange = "2017-02-01 17:11:38 +0000";
layers = (
{
layerId = UUID0;
paths = (
{
closed = 1;
nodes = (
"580 -10 OFFCURVE",
"620 160 OFFCURVE",
"621 202 CURVE",
"528 202 LINE",
"524 143 OFFCURVE",
"481 65 OFFCURVE",
"341 65 CURVE SMOOTH",
"202 65 OFFCURVE",
"146 115 OFFCURVE",
"146 202 CURVE SMOOTH",
"146 255 LINE",
"349 517 LINE",
"385 475 OFFCURVE",
"443 420 OFFCURVE",
"502 420 CURVE SMOOTH",
"614 420 OFFCURVE",
"652 510 OFFCURVE",
"652 572 CURVE SMOOTH",
"652 633 OFFCURVE",
"627 725 OFFCURVE",
"509 725 CURVE SMOOTH",
"442 725 OFFCURVE",
"408 693 OFFCURVE",
"353 631 CURVE",
"320 664 OFFCURVE",
"263 726 OFFCURVE",
"202 726 CURVE SMOOTH",
"73 725 OFFCURVE",
"60 616 OFFCURVE",
"60 569 CURVE SMOOTH",
"60 194 LINE SMOOTH",
"60 104 OFFCURVE",
"107 -10 OFFCURVE",
"341 -10 CURVE SMOOTH"
);
},
{
closed = 1;
nodes = (
"146 582 LINE SMOOTH",
"146 603 OFFCURVE",
"157 647 OFFCURVE",
"198 647 CURVE SMOOTH",
"223 647 OFFCURVE",
"279 593 OFFCURVE",
"303 569 CURVE",
"146 372 LINE"
);
},
{
closed = 1;
nodes = (
"469 491 OFFCURVE",
"416 553 OFFCURVE",
"399 571 CURVE",
"427 602 OFFCURVE",
"459 654 OFFCURVE",
"508 654 CURVE SMOOTH",
"550 654 OFFCURVE",
"572 613 OFFCURVE",
"572 572 CURVE SMOOTH",
"572 532 OFFCURVE",
"546 491 OFFCURVE",
"502 491 CURVE SMOOTH"
);
}
);
width = 668;
}
);
unicode = 1C58;
},
{
glyphname = uni1C59;
lastChange = "2017-02-01 17:11:38 +0000";
layers = (
{
layerId = UUID0;
paths = (
{
closed = 1;
nodes = (
"525 -10 OFFCURVE",
"596 160 OFFCURVE",
"596 280 CURVE SMOOTH",
"596 389 OFFCURVE",
"528 469 OFFCURVE",
"425 469 CURVE SMOOTH",
"342 469 OFFCURVE",
"272 400 OFFCURVE",
"272 313 CURVE SMOOTH",
"272 169 OFFCURVE",
"417 143 OFFCURVE",
"477 143 CURVE",
"468 122 OFFCURVE",
"427 65 OFFCURVE",
"333 65 CURVE SMOOTH",
"218 65 OFFCURVE",
"138 174 OFFCURVE",
"138 334 CURVE SMOOTH",
"138 513 OFFCURVE",
"262 625 OFFCURVE",
"373 646 CURVE",
"354 725 LINE",
"280 708 OFFCURVE",
"49 613 OFFCURVE",
"49 334 CURVE SMOOTH",
"49 133 OFFCURVE",
"160 -10 OFFCURVE",
"333 -10 CURVE SMOOTH"
);
},
{
closed = 1;
nodes = (
"411 204 OFFCURVE",
"346 248 OFFCURVE",
"346 314 CURVE SMOOTH",
"346 352 OFFCURVE",
"370 401 OFFCURVE",
"425 401 CURVE SMOOTH",
"503 401 OFFCURVE",
"518 317 OFFCURVE",
"518 285 CURVE SMOOTH",
"518 239 OFFCURVE",
"509 213 OFFCURVE",
"506 204 CURVE"
);
}
);
width = 632;
}
);
unicode = 1C59;
},
{
glyphname = uni1C5A;
lastChange = "2017-02-01 17:11:38 +0000";
layers = (
{
layerId = UUID0;
paths = (
{
closed = 1;
nodes = (
"518 -10 OFFCURVE",
"601 158 OFFCURVE",
"601 325 CURVE SMOOTH",
"601 570 OFFCURVE",
"478 725 OFFCURVE",
"258 725 CURVE SMOOTH",
"118 725 OFFCURVE",
"53 679 OFFCURVE",
"53 640 CURVE SMOOTH",
"53 619 OFFCURVE",
"64 599 OFFCURVE",
"82 572 CURVE SMOOTH",
"133 495 LINE",
"47 495 LINE",
"47 419 LINE",
"161 419 LINE SMOOTH",
"204 419 OFFCURVE",
"223 442 OFFCURVE",
"223 473 CURVE SMOOTH",
"223 490 OFFCURVE",
"217 512 OFFCURVE",
"205 531 CURVE SMOOTH",
"141 629 LINE",
"144 631 OFFCURVE",
"182 650 OFFCURVE",
"258 650 CURVE SMOOTH",
"334 650 OFFCURVE",
"386 619 OFFCURVE",
"393 612 CURVE",
"69 196 LINE",
"69 98 OFFCURVE",
"165 -10 OFFCURVE",
"319 -10 CURVE SMOOTH"
);
},
{
closed = 1;
nodes = (
"213 65 OFFCURVE",
"155 144 OFFCURVE",
"153 174 CURVE",
"447 553 LINE",
"462 538 OFFCURVE",
"513 444 OFFCURVE",
"513 325 CURVE SMOOTH",
"513 224 OFFCURVE",
"462 65 OFFCURVE",
"316 65 CURVE SMOOTH"
);
}
);
width = 649;
}
);
unicode = 1C5A;
},
{
glyphname = uni1C5B;
lastChange = "2017-02-01 17:11:38 +0000";
layers = (
{
layerId = UUID0;
paths = (
{
closed = 1;
nodes = (
"606 -10 OFFCURVE",
"720 137 OFFCURVE",
"720 358 CURVE SMOOTH",
"720 580 OFFCURVE",
"606 725 OFFCURVE",
"392 725 CURVE SMOOTH",
"168 725 OFFCURVE",
"61 578 OFFCURVE",
"61 359 CURVE SMOOTH",
"61 138 OFFCURVE",
"168 -10 OFFCURVE",
"391 -10 CURVE SMOOTH"
);
},
{
closed = 1;
nodes = (
"230 68 OFFCURVE",
"156 178 OFFCURVE",
"156 358 CURVE SMOOTH",
"156 538 OFFCURVE",
"230 646 OFFCURVE",
"392 646 CURVE SMOOTH",
"553 646 OFFCURVE",
"625 538 OFFCURVE",
"625 358 CURVE SMOOTH",
"625 178 OFFCURVE",
"553 68 OFFCURVE",
"391 68 CURVE SMOOTH"
);
}
);
width = 781;
}
);
unicode = 1C5B;
},
{
glyphname = uni1C5C;
lastChange = "2017-02-01 17:11:38 +0000";
layers = (
{
layerId = UUID0;
paths = (
{
closed = 1;
nodes = (
"535 -10 OFFCURVE",
"614 148 OFFCURVE",
"631 304 CURVE",
"585 328 LINE",
"564 318 OFFCURVE",
"477 281 OFFCURVE",
"424 281 CURVE SMOOTH",
"379 281 OFFCURVE",
"341 307 OFFCURVE",
"341 362 CURVE SMOOTH",
"341 407 OFFCURVE",
"368 436 OFFCURVE",
"423 436 CURVE SMOOTH",
"609 436 LINE",
"609 512 LINE",
"436 512 LINE SMOOTH",
"357 512 OFFCURVE",
"262 476 OFFCURVE",
"262 362 CURVE SMOOTH",
"262 285 OFFCURVE",
"323 210 OFFCURVE",
"412 210 CURVE SMOOTH",
"455 210 OFFCURVE",
"511 230 OFFCURVE",
"527 237 CURVE",
"527 168 OFFCURVE",
"447 65 OFFCURVE",
"348 65 CURVE SMOOTH",
"193 65 OFFCURVE",
"137 214 OFFCURVE",
"137 357 CURVE SMOOTH",
"137 485 OFFCURVE",
"181 650 OFFCURVE",
"336 650 CURVE SMOOTH",
"428 650 OFFCURVE",
"472 568 OFFCURVE",
"475 556 CURVE",
"564 577 LINE",
"549 635 OFFCURVE",
"465 725 OFFCURVE",
"333 725 CURVE SMOOTH",
"139 725 OFFCURVE",
"49 556 OFFCURVE",
"49 357 CURVE SMOOTH",
"49 148 OFFCURVE",
"154 -10 OFFCURVE",
"348 -10 CURVE SMOOTH"
);
}
);
width = 676;
}
);
unicode = 1C5C;
},
{
glyphname = uni1C5D;
lastChange = "2017-02-01 17:11:38 +0000";
layers = (
{
layerId = UUID0;
paths = (
{
closed = 1;
nodes = (
"463 -10 OFFCURVE",
"541 51 OFFCURVE",
"581 140 CURVE",
"363 357 LINE",
"581 575 LINE",
"541 664 OFFCURVE",
"463 725 OFFCURVE",
"344 725 CURVE SMOOTH",
"173 725 OFFCURVE",
"70 603 OFFCURVE",
"49 430 CURVE",
"138 430 LINE",
"155 547 OFFCURVE",
"215 650 OFFCURVE",
"344 650 CURVE SMOOTH",
"420 650 OFFCURVE",
"460 617 OFFCURVE",
"485 586 CURVE",
"257 357 LINE",
"485 129 LINE",
"460 98 OFFCURVE",
"420 65 OFFCURVE",
"344 65 CURVE SMOOTH",
"215 65 OFFCURVE",
"155 168 OFFCURVE",
"138 285 CURVE",
"49 285 LINE",
"70 112 OFFCURVE",
"173 -10 OFFCURVE",
"344 -10 CURVE SMOOTH"
);
},
{
closed = 1;
nodes = (
"632 318 LINE",
"632 387 LINE",
"446 387 LINE",
"446 318 LINE"
);
}
);
width = 672;
}
);
unicode = 1C5D;
},
{
glyphname = uni1C5E;
lastChange = "2017-02-01 17:11:38 +0000";
layers = (
{
layerId = UUID0;
paths = (
{
closed = 1;
nodes = (
"171 0 LINE",
"171 233 LINE",
"291 123 LINE",
"407 161 OFFCURVE",
"544 265 OFFCURVE",
"544 424 CURVE SMOOTH",
"544 583 OFFCURVE",
"407 687 OFFCURVE",
"291 725 CURVE",
"171 614 LINE",
"171 714 LINE",
"85 714 LINE",
"85 0 LINE"
);
},
{
closed = 1;
nodes = (
"171 323 LINE",
"171 524 LINE",
"291 640 LINE",
"362 619 OFFCURVE",
"455 545 OFFCURVE",
"455 424 CURVE SMOOTH",
"455 303 OFFCURVE",
"362 230 OFFCURVE",
"291 208 CURVE"
);
}
);
width = 584;
}
);
unicode = 1C5E;
},
{
glyphname = uni1C5F;
lastChange = "2017-02-01 17:11:38 +0000";
layers = (
{
layerId = UUID0;
paths = (
{
closed = 1;
nodes = (
"336 -10 OFFCURVE",
"475 73 OFFCURVE",
"475 350 CURVE SMOOTH",
"475 453 OFFCURVE",
"431 539 OFFCURVE",
"423 553 CURVE",
"461 610 LINE",
"508 562 OFFCURVE",
"554 455 OFFCURVE",
"554 350 CURVE SMOOTH",
"554 157 OFFCURVE",
"459 24 OFFCURVE",
"439 0 CURVE",
"536 0 LINE",
"552 17 OFFCURVE",
"642 144 OFFCURVE",
"642 350 CURVE SMOOTH",
"642 487 OFFCURVE",
"583 656 OFFCURVE",
"442 725 CURVE",
"377 627 LINE",
"331 685 OFFCURVE",
"272 725 OFFCURVE",
"206 725 CURVE SMOOTH",
"124 725 OFFCURVE",
"72 675 OFFCURVE",
"63 668 CURVE",
"131 493 LINE",
"47 493 LINE",
"63 416 LINE",
"135 416 LINE SMOOTH",
"185 416 OFFCURVE",
"208 447 OFFCURVE",
"208 485 CURVE SMOOTH",
"208 499 OFFCURVE",
"205 513 OFFCURVE",
"199 528 CURVE SMOOTH",
"158 634 LINE",
"161 636 OFFCURVE",
"177 650 OFFCURVE",
"205 650 CURVE SMOOTH",
"251 650 OFFCURVE",
"297 612 OFFCURVE",
"331 557 CURVE",
"51 136 LINE",
"51 62 OFFCURVE",
"133 -10 OFFCURVE",
"229 -10 CURVE SMOOTH"
);
},
{
closed = 1;
nodes = (
"183 65 OFFCURVE",
"141 104 OFFCURVE",
"135 122 CURVE",
"370 473 LINE",
"373 464 OFFCURVE",
"391 417 OFFCURVE",
"391 350 CURVE SMOOTH",
"391 258 OFFCURVE",
"365 65 OFFCURVE",
"229 65 CURVE SMOOTH"
);
}
);
width = 692;
}
);
unicode = 1C5F;
},
{
glyphname = uni1C60;
lastChange = "2017-02-01 17:11:38 +0000";
layers = (
{
layerId = UUID0;
paths = (
{
closed = 1;
nodes = (
"402 28 OFFCURVE",
"539 132 OFFCURVE",
"539 291 CURVE SMOOTH",
"539 450 OFFCURVE",
"402 554 OFFCURVE",
"286 592 CURVE",
"166 482 LINE",
"166 715 LINE",
"80 715 LINE",
"80 176 LINE",
"286 -10 LINE"
);
},
{
closed = 1;
nodes = (
"166 192 LINE",
"166 397 LINE",
"286 507 LINE",
"357 486 OFFCURVE",
"450 412 OFFCURVE",
"450 291 CURVE SMOOTH",
"450 170 OFFCURVE",
"360 99 OFFCURVE",
"292 79 CURVE"
);
}
);
width = 579;
}
);
unicode = 1C60;
},
{
glyphname = uni1C61;
lastChange = "2017-02-01 17:11:38 +0000";
layers = (
{
layerId = UUID0;
paths = (
{
closed = 1;
nodes = (
"448 32 OFFCURVE",
"580 189 OFFCURVE",
"580 360 CURVE SMOOTH",
"580 536 OFFCURVE",
"465 674 OFFCURVE",
"426 715 CURVE",
"309 715 LINE",
"351 672 OFFCURVE",
"492 546 OFFCURVE",
"492 360 CURVE SMOOTH",
"492 204 OFFCURVE",
"394 120 OFFCURVE",
"368 100 CURVE",
"171 291 LINE",
"171 715 LINE",
"85 715 LINE",
"85 1 LINE",
"171 1 LINE",
"171 181 LINE",
"368 -10 LINE"
);
}
);
width = 629;
}
);
unicode = 1C61;
},
{
glyphname = uni1C62;
lastChange = "2017-02-01 17:11:38 +0000";
layers = (
{
layerId = UUID0;
paths = (
{
closed = 1;
nodes = (
"458 181 LINE",
"458 1 LINE",
"544 1 LINE",
"544 715 LINE",
"458 715 LINE",
"458 291 LINE",
"261 100 LINE",
"235 120 OFFCURVE",
"137 204 OFFCURVE",
"137 360 CURVE SMOOTH",
"137 546 OFFCURVE",
"278 672 OFFCURVE",
"320 715 CURVE",
"203 715 LINE",
"164 674 OFFCURVE",
"49 536 OFFCURVE",
"49 360 CURVE SMOOTH",
"49 189 OFFCURVE",
"181 32 OFFCURVE",
"261 -10 CURVE"
);
}
);
width = 629;
}
);
unicode = 1C62;
},
{
glyphname = uni1C63;
lastChange = "2017-02-01 17:11:38 +0000";
layers = (
{
layerId = UUID0;
paths = (
{
closed = 1;
nodes = (
"503 -10 OFFCURVE",
"606 156 OFFCURVE",
"606 353 CURVE SMOOTH",
"606 538 OFFCURVE",
"540 654 OFFCURVE",
"515 715 CURVE",
"418 715 LINE",
"442 666 OFFCURVE",
"518 533 OFFCURVE",
"518 353 CURVE SMOOTH",
"518 190 OFFCURVE",
"441 65 OFFCURVE",
"336 65 CURVE SMOOTH",
"263 65 OFFCURVE",
"159 144 OFFCURVE",
"148 257 CURVE",
"170 243 OFFCURVE",
"211 221 OFFCURVE",
"263 221 CURVE SMOOTH",
"339 221 OFFCURVE",
"406 294 OFFCURVE",
"406 466 CURVE SMOOTH",
"406 570 OFFCURVE",
"368 725 OFFCURVE",
"223 725 CURVE SMOOTH",
"106 725 OFFCURVE",
"54 616 OFFCURVE",
"49 522 CURVE",
"126 522 LINE",
"126 594 OFFCURVE",
"168 650 OFFCURVE",
"223 650 CURVE SMOOTH",
"286 650 OFFCURVE",
"325 578 OFFCURVE",
"325 466 CURVE SMOOTH",
"325 328 OFFCURVE",
"288 296 OFFCURVE",
"221 296 CURVE SMOOTH",
"158 296 OFFCURVE",
"76 372 OFFCURVE",
"50 398 CURVE",
"50 125 OFFCURVE",
"179 -10 OFFCURVE",
"336 -10 CURVE SMOOTH"
);
}
);
width = 655;
}
);
unicode = 1C63;
},
{
glyphname = uni1C64;
lastChange = "2017-02-01 17:11:38 +0000";
layers = (
{
layerId = UUID0;
paths = (
{
closed = 1;
nodes = (
"397 426 LINE",
"397 0 LINE",
"473 0 LINE",
"473 533 LINE",
"523 604 LINE",
"506 625 OFFCURVE",
"429 725 OFFCURVE",
"295 725 CURVE SMOOTH",
"167 725 OFFCURVE",
"89 622 OFFCURVE",
"68 597 CURVE",
"124 543 LINE",
"128 548 OFFCURVE",
"200 650 OFFCURVE",
"295 650 CURVE SMOOTH",
"369 650 OFFCURVE",
"414 605 OFFCURVE",
"421 598 CURVE",
"30 47 LINE",
"95 0 LINE"
);
}
);
width = 561;
}
);
unicode = 1C64;
},
{
glyphname = uni1C65;
lastChange = "2017-02-01 17:11:38 +0000";
layers = (
{
layerId = UUID0;
paths = (
{
closed = 1;
nodes = (
"426 -10 OFFCURVE",
"504 93 OFFCURVE",
"525 118 CURVE",
"469 172 LINE",
"465 167 OFFCURVE",
"393 65 OFFCURVE",
"298 65 CURVE SMOOTH",
"224 65 OFFCURVE",
"179 110 OFFCURVE",
"172 117 CURVE",
"563 668 LINE",
"498 715 LINE",
"196 289 LINE",
"196 715 LINE",
"120 715 LINE",
"120 182 LINE",
"70 111 LINE",
"87 90 OFFCURVE",
"164 -10 OFFCURVE",
"298 -10 CURVE SMOOTH"
);
}
);
width = 587;
}
);
unicode = 1C65;
},
{
glyphname = uni1C66;
lastChange = "2017-02-01 17:11:38 +0000";
layers = (
{
layerId = UUID0;
paths = (
{
closed = 1;
nodes = (
"381 161 LINE",
"518 -10 LINE",
"532 3 OFFCURVE",
"713 154 OFFCURVE",
"713 371 CURVE SMOOTH",
"713 584 OFFCURVE",
"570 707 OFFCURVE",
"551 725 CURVE",
"495 659 LINE",
"514 644 OFFCURVE",
"624 536 OFFCURVE",
"624 371 CURVE SMOOTH",
"624 222 OFFCURVE",
"535 133 OFFCURVE",
"515 111 CURVE",
"381 281 LINE",
"247 111 LINE",
"227 133 OFFCURVE",
"138 222 OFFCURVE",
"138 371 CURVE SMOOTH",
"138 536 OFFCURVE",
"248 644 OFFCURVE",
"267 659 CURVE",
"211 725 LINE",
"192 707 OFFCURVE",
"49 584 OFFCURVE",
"49 371 CURVE SMOOTH",
"49 154 OFFCURVE",
"230 3 OFFCURVE",
"244 -10 CURVE"
);
}
);
width = 762;
}
);
unicode = 1C66;
},
{
glyphname = uni1C67;
lastChange = "2017-02-01 17:11:38 +0000";
layers = (
{
layerId = UUID0;
paths = (
{
closed = 1;
nodes = (
"499 0 LINE",
"499 714 LINE",
"413 714 LINE",
"413 614 LINE",
"293 725 LINE",
"177 687 OFFCURVE",
"40 583 OFFCURVE",
"40 424 CURVE SMOOTH",
"40 265 OFFCURVE",
"177 161 OFFCURVE",
"293 123 CURVE",
"413 233 LINE",
"413 0 LINE"
);
},
{
closed = 1;
nodes = (
"219 233 OFFCURVE",
"129 303 OFFCURVE",
"129 424 CURVE SMOOTH",
"129 545 OFFCURVE",
"219 615 OFFCURVE",
"293 640 CURVE",
"413 524 LINE",
"413 323 LINE",
"293 208 LINE"
);
}
);
width = 584;
}
);
unicode = 1C67;
},
{
glyphname = uni1C68;
lastChange = "2017-02-01 17:11:38 +0000";
layers = (
{
layerId = UUID0;
paths = (
{
closed = 1;
nodes = (
"158 138 LINE",
"276 -10 LINE",
"399 33 OFFCURVE",
"493 148 OFFCURVE",
"493 308 CURVE SMOOTH",
"493 617 OFFCURVE",
"203 712 OFFCURVE",
"46 725 CURVE",
"46 641 LINE",
"246 615 OFFCURVE",
"404 513 OFFCURVE",
"404 303 CURVE SMOOTH",
"404 240 OFFCURVE",
"389 210 OFFCURVE",
"381 196 CURVE",
"91 560 LINE",
"40 515 LINE",
"345 132 LINE",
"322 103 OFFCURVE",
"300 89 OFFCURVE",
"295 85 CURVE",
"158 257 LINE",
"40 109 LINE",
"40 -10 LINE"
);
}
);
width = 542;
}
);
unicode = 1C68;
},
{
glyphname = uni1C69;
lastChange = "2017-02-01 17:11:38 +0000";
layers = (
{
layerId = UUID0;
paths = (
{
closed = 1;
nodes = (
"410 28 OFFCURVE",
"505 151 OFFCURVE",
"505 307 CURVE SMOOTH",
"505 466 OFFCURVE",
"410 568 OFFCURVE",
"294 606 CURVE",
"261 597 OFFCURVE",
"194 539 OFFCURVE",
"174 496 CURVE",
"174 715 LINE",
"88 715 LINE",
"88 355 LINE",
"174 355 LINE",
"179 378 OFFCURVE",
"228 499 OFFCURVE",
"294 521 CURVE",
"302 518 OFFCURVE",
"416 473 OFFCURVE",
"416 307 CURVE SMOOTH",
"416 186 OFFCURVE",
"350 108 OFFCURVE",
"300 83 CURVE",
"130 228 LINE",
"80 172 LINE",
"294 -10 LINE"
);
}
);
width = 545;
}
);
unicode = 1C69;
},
{
glyphname = uni1C6A;
lastChange = "2017-02-01 17:11:38 +0000";
layers = (
{
layerId = UUID0;
paths = (
{
closed = 1;
nodes = (
"447 -10 OFFCURVE",
"561 51 OFFCURVE",
"633 161 CURVE",
"512 285 LINE",
"512 540 LINE SMOOTH",
"512 616 OFFCURVE",
"488 729 OFFCURVE",
"327 729 CURVE SMOOTH",
"166 729 OFFCURVE",
"142 616 OFFCURVE",
"142 540 CURVE SMOOTH",
"142 285 LINE",
"21 161 LINE",
"93 51 OFFCURVE",
"207 -10 OFFCURVE",
"327 -10 CURVE SMOOTH"
);
},
{
closed = 1;
nodes = (
"213 57 OFFCURVE",
"130 140 OFFCURVE",
"118 153 CURVE",
"181 216 LINE",
"222 183 OFFCURVE",
"281 166 OFFCURVE",
"327 166 CURVE SMOOTH",
"373 166 OFFCURVE",
"432 183 OFFCURVE",
"473 216 CURVE",
"536 153 LINE",
"524 140 OFFCURVE",
"441 57 OFFCURVE",
"327 57 CURVE SMOOTH"
);
},
{
closed = 1;
nodes = (
"285 243 OFFCURVE",
"243 266 OFFCURVE",
"228 277 CURVE",
"228 536 LINE SMOOTH",
"228 580 OFFCURVE",
"230 654 OFFCURVE",
"327 654 CURVE SMOOTH",
"424 654 OFFCURVE",
"426 580 OFFCURVE",
"426 536 CURVE SMOOTH",
"426 277 LINE",
"411 266 OFFCURVE",
"369 243 OFFCURVE",
"327 243 CURVE SMOOTH"
);
}
);
width = 654;
}
);
unicode = 1C6A;
},
{
glyphname = uni1C6B;
lastChange = "2017-02-01 17:11:38 +0000";
layers = (
{
layerId = UUID0;
paths = (
{
closed = 1;
nodes = (
"256 293 LINE",
"256 368 LINE",
"216 368 LINE SMOOTH",
"172 368 OFFCURVE",
"128 398 OFFCURVE",
"128 450 CURVE SMOOTH",
"128 530 OFFCURVE",
"291 631 OFFCURVE",
"339 647 CURVE",
"387 631 OFFCURVE",
"550 530 OFFCURVE",
"550 450 CURVE SMOOTH",
"550 398 OFFCURVE",
"506 368 OFFCURVE",
"462 368 CURVE SMOOTH",
"422 368 LINE",
"422 293 LINE",
"462 293 LINE SMOOTH",
"552 293 OFFCURVE",
"638 340 OFFCURVE",
"638 450 CURVE SMOOTH",
"638 585 OFFCURVE",
"407 706 OFFCURVE",
"339 725 CURVE",
"271 706 OFFCURVE",
"40 585 OFFCURVE",
"40 450 CURVE SMOOTH",
"40 340 OFFCURVE",
"126 293 OFFCURVE",
"216 293 CURVE SMOOTH"
);
},
{
closed = 1;
nodes = (
"509 -10 OFFCURVE",
"523 184 OFFCURVE",
"526 248 CURVE",
"446 248 LINE",
"446 172 OFFCURVE",
"426 58 OFFCURVE",
"339 58 CURVE SMOOTH",
"270 58 OFFCURVE",
"233 113 OFFCURVE",
"224 155 CURVE",
"342 120 LINE",
"379 163 LINE",
"379 517 LINE",
"299 517 LINE",
"299 196 LINE",
"134 245 LINE",
"134 186 OFFCURVE",
"154 -10 OFFCURVE",
"339 -10 CURVE SMOOTH"
);
}
);
width = 678;
}
);
unicode = 1C6B;
},
{
glyphname = uni1C6C;
lastChange = "2017-02-01 17:11:38 +0000";
layers = (
{
layerId = UUID0;
paths = (
{
closed = 1;
nodes = (
"267 56 LINE",
"248 71 OFFCURVE",
"138 179 OFFCURVE",
"138 344 CURVE SMOOTH",
"138 493 OFFCURVE",
"227 582 OFFCURVE",
"247 604 CURVE",
"381 434 LINE",
"515 604 LINE",
"535 582 OFFCURVE",
"624 493 OFFCURVE",
"624 344 CURVE SMOOTH",
"624 179 OFFCURVE",
"514 71 OFFCURVE",
"495 56 CURVE",
"551 -10 LINE",
"570 8 OFFCURVE",
"713 131 OFFCURVE",
"713 344 CURVE SMOOTH",
"713 561 OFFCURVE",
"532 712 OFFCURVE",
"518 725 CURVE",
"381 554 LINE",
"244 725 LINE",
"230 712 OFFCURVE",
"49 561 OFFCURVE",
"49 344 CURVE SMOOTH",
"49 131 OFFCURVE",
"192 8 OFFCURVE",
"211 -10 CURVE"
);
}
);
width = 762;
}
);
unicode = 1C6C;
},
{
glyphname = uni1C6D;
lastChange = "2017-02-01 17:11:38 +0000";
layers = (
{
layerId = UUID0;
paths = (
{
closed = 1;
nodes = (
"549 -10 OFFCURVE",
"601 99 OFFCURVE",
"606 193 CURVE",
"529 193 LINE",
"529 121 OFFCURVE",
"487 65 OFFCURVE",
"432 65 CURVE SMOOTH",
"369 65 OFFCURVE",
"330 137 OFFCURVE",
"330 249 CURVE SMOOTH",
"330 387 OFFCURVE",
"367 419 OFFCURVE",
"434 419 CURVE SMOOTH",
"497 419 OFFCURVE",
"579 343 OFFCURVE",
"605 317 CURVE",
"605 590 OFFCURVE",
"476 725 OFFCURVE",
"319 725 CURVE SMOOTH",
"152 725 OFFCURVE",
"49 559 OFFCURVE",
"49 362 CURVE SMOOTH",
"49 177 OFFCURVE",
"115 61 OFFCURVE",
"140 0 CURVE",
"237 0 LINE",
"213 49 OFFCURVE",
"137 182 OFFCURVE",
"137 362 CURVE SMOOTH",
"137 525 OFFCURVE",
"214 650 OFFCURVE",
"319 650 CURVE SMOOTH",
"392 650 OFFCURVE",
"496 571 OFFCURVE",
"507 458 CURVE",
"485 472 OFFCURVE",
"444 494 OFFCURVE",
"392 494 CURVE SMOOTH",
"316 494 OFFCURVE",
"249 421 OFFCURVE",
"249 249 CURVE SMOOTH",
"249 145 OFFCURVE",
"287 -10 OFFCURVE",
"432 -10 CURVE SMOOTH"
);
}
);
width = 655;
}
);
unicode = 1C6D;
},
{
glyphname = uni1C6E;
lastChange = "2017-02-01 17:11:38 +0000";
layers = (
{
layerId = UUID0;
paths = (
{
closed = 1;
nodes = (
"412 -10 OFFCURVE",
"500 73 OFFCURVE",
"538 173 CURVE",
"446 173 LINE",
"430 142 OFFCURVE",
"379 65 OFFCURVE",
"287 65 CURVE SMOOTH",
"195 65 OFFCURVE",
"153 134 OFFCURVE",
"138 164 CURVE",
"538 542 LINE",
"500 642 OFFCURVE",
"412 725 OFFCURVE",
"287 725 CURVE SMOOTH",
"162 725 OFFCURVE",
"74 642 OFFCURVE",
"36 542 CURVE",
"128 542 LINE",
"144 573 OFFCURVE",
"195 650 OFFCURVE",
"287 650 CURVE SMOOTH",
"379 650 OFFCURVE",
"420 583 OFFCURVE",
"435 551 CURVE",
"36 173 LINE",
"74 73 OFFCURVE",
"162 -10 OFFCURVE",
"287 -10 CURVE SMOOTH"
);
}
);
width = 574;
}
);
unicode = 1C6E;
},
{
glyphname = uni1C6F;
lastChange = "2017-02-01 17:11:38 +0000";
layers = (
{
layerId = UUID0;
paths = (
{
closed = 1;
nodes = (
"506 -10 OFFCURVE",
"612 36 OFFCURVE",
"698 159 CURVE",
"649 219 LINE",
"622 181 OFFCURVE",
"593 150 OFFCURVE",
"560 126 CURVE",
"560 455 LINE",
"647 625 LINE",
"574 693 OFFCURVE",
"487 725 OFFCURVE",
"373 725 CURVE SMOOTH",
"222 725 OFFCURVE",
"116 679 OFFCURVE",
"30 556 CURVE",
"79 496 LINE",
"105 534 OFFCURVE",
"135 564 OFFCURVE",
"168 588 CURVE",
"168 260 LINE",
"81 90 LINE",
"154 22 OFFCURVE",
"241 -10 OFFCURVE",
"355 -10 CURVE SMOOTH"
);
},
{
closed = 1;
nodes = (
"290 65 OFFCURVE",
"236 81 OFFCURVE",
"188 110 CURVE",
"254 240 LINE",
"254 632 LINE",
"290 644 OFFCURVE",
"330 650 OFFCURVE",
"373 650 CURVE SMOOTH",
"438 650 OFFCURVE",
"492 634 OFFCURVE",
"540 605 CURVE",
"474 475 LINE",
"474 82 LINE",
"437 70 OFFCURVE",
"398 65 OFFCURVE",
"355 65 CURVE SMOOTH"
);
}
);
width = 728;
}
);
unicode = 1C6F;
},
{
glyphname = uni1C70;
lastChange = "2017-02-01 17:11:38 +0000";
layers = (
{
layerId = UUID0;
paths = (
{
closed = 1;
nodes = (
"402 0 LINE",
"402 627 LINE",
"472 598 OFFCURVE",
"581 508 OFFCURVE",
"581 355 CURVE SMOOTH",
"581 203 OFFCURVE",
"470 112 OFFCURVE",
"447 100 CURVE",
"486 26 LINE",
"517 42 OFFCURVE",
"669 158 OFFCURVE",
"669 355 CURVE SMOOTH",
"669 575 OFFCURVE",
"491 689 OFFCURVE",
"402 714 CURVE",
"316 714 LINE",
"316 86 LINE",
"245 116 OFFCURVE",
"137 205 OFFCURVE",
"137 359 CURVE SMOOTH",
"137 511 OFFCURVE",
"248 602 OFFCURVE",
"271 614 CURVE",
"232 688 LINE",
"201 672 OFFCURVE",
"49 556 OFFCURVE",
"49 359 CURVE SMOOTH",
"49 139 OFFCURVE",
"227 25 OFFCURVE",
"316 0 CURVE"
);
}
);
width = 718;
}
);
unicode = 1C70;
},
{
glyphname = uni1C71;
lastChange = "2017-02-01 17:11:38 +0000";
layers = (
{
layerId = UUID0;
paths = (
{
closed = 1;
nodes = (
"427 -10 OFFCURVE",
"496 129 OFFCURVE",
"508 152 CURVE",
"413 152 LINE",
"407 139 OFFCURVE",
"367 65 OFFCURVE",
"293 65 CURVE SMOOTH",
"239 65 OFFCURVE",
"195 105 OFFCURVE",
"176 137 CURVE",
"460 563 LINE",
"493 524 OFFCURVE",
"504 481 OFFCURVE",
"506 479 CURVE",
"544 574 LINE",
"497 653 OFFCURVE",
"406 725 OFFCURVE",
"285 725 CURVE SMOOTH",
"151 725 OFFCURVE",
"83 658 OFFCURVE",
"70 647 CURVE",
"133 603 LINE",
"133 217 LINE",
"78 136 LINE",
"102 97 OFFCURVE",
"159 -10 OFFCURVE",
"293 -10 CURVE SMOOTH"
);
},
{
closed = 1;
nodes = (
"209 640 LINE",
"214 641 OFFCURVE",
"241 650 OFFCURVE",
"285 650 CURVE SMOOTH",
"335 650 OFFCURVE",
"377 630 OFFCURVE",
"399 616 CURVE",
"209 330 LINE"
);
}
);
width = 568;
}
);
unicode = 1C71;
},
{
glyphname = uni1C72;
lastChange = "2017-02-01 17:11:38 +0000";
layers = (
{
layerId = UUID0;
paths = (
{
closed = 1;
nodes = (
"417 -10 OFFCURVE",
"485 57 OFFCURVE",
"498 68 CURVE",
"435 112 LINE",
"435 498 LINE",
"490 579 LINE",
"466 618 OFFCURVE",
"409 725 OFFCURVE",
"275 725 CURVE SMOOTH",
"141 725 OFFCURVE",
"72 586 OFFCURVE",
"60 563 CURVE",
"155 563 LINE",
"161 576 OFFCURVE",
"201 650 OFFCURVE",
"275 650 CURVE SMOOTH",
"329 650 OFFCURVE",
"373 610 OFFCURVE",
"392 578 CURVE",
"108 152 LINE",
"75 191 OFFCURVE",
"64 234 OFFCURVE",
"62 236 CURVE",
"24 141 LINE",
"71 62 OFFCURVE",
"162 -10 OFFCURVE",
"283 -10 CURVE SMOOTH"
);
},
{
closed = 1;
nodes = (
"233 65 OFFCURVE",
"191 85 OFFCURVE",
"169 99 CURVE",
"359 385 LINE",
"359 75 LINE",
"354 74 OFFCURVE",
"327 65 OFFCURVE",
"283 65 CURVE SMOOTH"
);
}
);
width = 568;
}
);
unicode = 1C72;
},
{
glyphname = uni1C73;
lastChange = "2017-02-01 17:11:38 +0000";
layers = (
{
layerId = UUID0;
paths = (
{
closed = 1;
nodes = (
"510 -10 OFFCURVE",
"620 148 OFFCURVE",
"620 357 CURVE SMOOTH",
"620 566 OFFCURVE",
"510 724 OFFCURVE",
"316 724 CURVE SMOOTH",
"156 724 OFFCURVE",
"76 608 OFFCURVE",
"45 477 CURVE",
"137 477 LINE",
"144 543 OFFCURVE",
"217 649 OFFCURVE",
"316 649 CURVE SMOOTH",
"412 649 OFFCURVE",
"475 591 OFFCURVE",
"507 507 CURVE",
"503 510 OFFCURVE",
"473 531 OFFCURVE",
"420 531 CURVE SMOOTH",
"318 531 OFFCURVE",
"254 453 OFFCURVE",
"254 357 CURVE SMOOTH",
"254 261 OFFCURVE",
"318 183 OFFCURVE",
"420 183 CURVE SMOOTH",
"473 183 OFFCURVE",
"503 204 OFFCURVE",
"507 207 CURVE",
"475 129 OFFCURVE",
"412 65 OFFCURVE",
"316 65 CURVE SMOOTH",
"217 65 OFFCURVE",
"144 171 OFFCURVE",
"137 237 CURVE",
"45 237 LINE",
"76 106 OFFCURVE",
"156 -10 OFFCURVE",
"316 -10 CURVE SMOOTH"
);
},
{
closed = 1;
nodes = (
"372 254 OFFCURVE",
"325 301 OFFCURVE",
"325 357 CURVE SMOOTH",
"325 413 OFFCURVE",
"372 460 OFFCURVE",
"428 460 CURVE SMOOTH",
"484 460 OFFCURVE",
"531 413 OFFCURVE",
"531 357 CURVE SMOOTH",
"531 301 OFFCURVE",
"484 254 OFFCURVE",
"428 254 CURVE SMOOTH"
);
}
);
width = 669;
}
);
unicode = 1C73;
},
{
glyphname = uni1C74;
lastChange = "2017-02-01 17:11:38 +0000";
layers = (
{
layerId = UUID0;
paths = (
{
closed = 1;
nodes = (
"171 0 LINE",
"171 424 LINE",
"368 615 LINE",
"394 595 OFFCURVE",
"492 511 OFFCURVE",
"492 355 CURVE SMOOTH",
"492 169 OFFCURVE",
"351 43 OFFCURVE",
"309 0 CURVE",
"426 0 LINE",
"465 41 OFFCURVE",
"580 179 OFFCURVE",
"580 355 CURVE SMOOTH",
"580 526 OFFCURVE",
"448 683 OFFCURVE",
"368 725 CURVE",
"171 534 LINE",
"171 714 LINE",
"85 714 LINE",
"85 0 LINE"
);
}
);
width = 629;
}
);
unicode = 1C74;
},
{
glyphname = uni1C75;
lastChange = "2017-02-01 17:11:38 +0000";
layers = (
{
layerId = UUID0;
paths = (
{
closed = 1;
nodes = (
"402 0 LINE",
"491 25 OFFCURVE",
"669 139 OFFCURVE",
"669 359 CURVE SMOOTH",
"669 556 OFFCURVE",
"517 672 OFFCURVE",
"486 688 CURVE",
"447 614 LINE",
"470 602 OFFCURVE",
"581 511 OFFCURVE",
"581 359 CURVE SMOOTH",
"581 206 OFFCURVE",
"472 116 OFFCURVE",
"402 87 CURVE",
"402 714 LINE",
"316 714 LINE",
"227 689 OFFCURVE",
"49 575 OFFCURVE",
"49 355 CURVE SMOOTH",
"49 158 OFFCURVE",
"201 42 OFFCURVE",
"232 26 CURVE",
"271 100 LINE",
"248 112 OFFCURVE",
"137 203 OFFCURVE",
"137 355 CURVE SMOOTH",
"137 509 OFFCURVE",
"245 598 OFFCURVE",
"316 628 CURVE",
"316 0 LINE"
);
}
);
width = 718;
}
);
unicode = 1C75;
},
{
glyphname = uni1C76;
lastChange = "2017-02-01 17:11:38 +0000";
layers = (
{
layerId = UUID0;
paths = (
{
closed = 1;
nodes = (
"503 -10 OFFCURVE",
"606 156 OFFCURVE",
"606 353 CURVE SMOOTH",
"606 386 OFFCURVE",
"604 417 OFFCURVE",
"600 446 CURVE",
"511 446 LINE",
"515 417 OFFCURVE",
"518 386 OFFCURVE",
"518 353 CURVE SMOOTH",
"518 190 OFFCURVE",
"441 65 OFFCURVE",
"336 65 CURVE SMOOTH",
"263 65 OFFCURVE",
"159 144 OFFCURVE",
"148 257 CURVE",
"170 243 OFFCURVE",
"211 221 OFFCURVE",
"263 221 CURVE SMOOTH",
"339 221 OFFCURVE",
"406 294 OFFCURVE",
"406 466 CURVE SMOOTH",
"406 570 OFFCURVE",
"368 725 OFFCURVE",
"223 725 CURVE SMOOTH",
"106 725 OFFCURVE",
"54 616 OFFCURVE",
"49 522 CURVE",
"126 522 LINE",
"126 594 OFFCURVE",
"168 650 OFFCURVE",
"223 650 CURVE SMOOTH",
"286 650 OFFCURVE",
"325 578 OFFCURVE",
"325 466 CURVE SMOOTH",
"325 328 OFFCURVE",
"288 296 OFFCURVE",
"221 296 CURVE SMOOTH",
"158 296 OFFCURVE",
"76 372 OFFCURVE",
"50 398 CURVE",
"50 125 OFFCURVE",
"179 -10 OFFCURVE",
"336 -10 CURVE SMOOTH"
);
},
{
closed = 1;
nodes = (
"582 510 OFFCURVE",
"610 538 OFFCURVE",
"610 572 CURVE SMOOTH",
"610 606 OFFCURVE",
"582 634 OFFCURVE",
"548 634 CURVE SMOOTH",
"514 634 OFFCURVE",
"486 606 OFFCURVE",
"486 572 CURVE SMOOTH",
"486 538 OFFCURVE",
"514 510 OFFCURVE",
"548 510 CURVE SMOOTH"
);
}
);
width = 655;
}
);
unicode = 1C76;
},
{
glyphname = uni1C77;
lastChange = "2017-02-01 17:11:38 +0000";
layers = (
{
layerId = UUID0;
paths = (
{
closed = 1;
nodes = (
"346 130 LINE",
"487 -10 LINE",
"501 3 OFFCURVE",
"669 119 OFFCURVE",
"669 317 CURVE SMOOTH",
"669 519 OFFCURVE",
"539 725 OFFCURVE",
"332 725 CURVE SMOOTH",
"206 725 OFFCURVE",
"173 635 OFFCURVE",
"173 578 CURVE SMOOTH",
"173 429 OFFCURVE",
"342 307 OFFCURVE",
"581 307 CURVE",
"581 192 OFFCURVE",
"511 120 OFFCURVE",
"488 101 CURVE",
"346 246 LINE",
"204 101 LINE",
"190 117 OFFCURVE",
"138 173 OFFCURVE",
"138 286 CURVE SMOOTH",
"138 351 OFFCURVE",
"157 408 OFFCURVE",
"181 453 CURVE",
"101 490 LINE",
"72 436 OFFCURVE",
"49 368 OFFCURVE",
"49 286 CURVE SMOOTH",
"49 86 OFFCURVE",
"191 3 OFFCURVE",
"205 -10 CURVE"
);
},
{
closed = 1;
nodes = (
"451 379 OFFCURVE",
"260 438 OFFCURVE",
"260 572 CURVE SMOOTH",
"260 614 OFFCURVE",
"285 650 OFFCURVE",
"343 650 CURVE SMOOTH",
"479 650 OFFCURVE",
"578 467 OFFCURVE",
"578 379 CURVE"
);
}
);
width = 718;
}
);
unicode = 1C77;
},
{
glyphname = uni1C78;
lastChange = "2017-02-01 17:11:38 +0000";
layers = (
{
layerId = UUID0;
paths = (
{
closed = 1;
nodes = (
"167 590 OFFCURVE",
"196 610 OFFCURVE",
"196 658 CURVE SMOOTH",
"196 707 OFFCURVE",
"167 725 OFFCURVE",
"133 725 CURVE SMOOTH",
"99 725 OFFCURVE",
"72 707 OFFCURVE",
"72 658 CURVE SMOOTH",
"72 610 OFFCURVE",
"99 590 OFFCURVE",
"133 590 CURVE SMOOTH"
);
}
);
width = 268;
}
);
unicode = 1C78;
},
{
glyphname = uni1C79;
lastChange = "2017-02-01 17:11:38 +0000";
layers = (
{
layerId = UUID0;
paths = (
{
closed = 1;
nodes = (
"167 -14 OFFCURVE",
"196 6 OFFCURVE",
"196 54 CURVE SMOOTH",
"196 103 OFFCURVE",
"167 121 OFFCURVE",
"133 121 CURVE SMOOTH",
"99 121 OFFCURVE",
"72 103 OFFCURVE",
"72 54 CURVE SMOOTH",
"72 6 OFFCURVE",
"99 -14 OFFCURVE",
"133 -14 CURVE SMOOTH"
);
}
);
width = 268;
}
);
unicode = 1C79;
},
{
glyphname = uni1C7A;
lastChange = "2017-02-01 17:11:38 +0000";
layers = (
{
layerId = UUID0;
paths = (
{
closed = 1;
nodes = (
"167 414 OFFCURVE",
"196 434 OFFCURVE",
"196 482 CURVE SMOOTH",
"196 532 OFFCURVE",
"167 550 OFFCURVE",
"133 550 CURVE SMOOTH",
"99 550 OFFCURVE",
"72 532 OFFCURVE",
"72 482 CURVE SMOOTH",
"72 434 OFFCURVE",
"99 414 OFFCURVE",
"133 414 CURVE SMOOTH"
);
},
{
closed = 1;
nodes = (
"167 -14 OFFCURVE",
"196 6 OFFCURVE",
"196 54 CURVE SMOOTH",
"196 103 OFFCURVE",
"167 121 OFFCURVE",
"133 121 CURVE SMOOTH",
"99 121 OFFCURVE",
"72 103 OFFCURVE",
"72 54 CURVE SMOOTH",
"72 6 OFFCURVE",
"99 -14 OFFCURVE",
"133 -14 CURVE SMOOTH"
);
}
);
width = 268;
}
);
unicode = 1C7A;
},
{
glyphname = uni1C7B;
lastChange = "2017-02-01 17:11:38 +0000";
layers = (
{
layerId = UUID0;
paths = (
{
closed = 1;
nodes = (
"83 390 OFFCURVE",
"109 443 OFFCURVE",
"154 443 CURVE SMOOTH",
"191 443 OFFCURVE",
"296 397 OFFCURVE",
"344 397 CURVE SMOOTH",
"418 397 OFFCURVE",
"457 485 OFFCURVE",
"460 495 CURVE",
"421 522 LINE",
"417 514 OFFCURVE",
"393 463 OFFCURVE",
"346 463 CURVE SMOOTH",
"315 463 OFFCURVE",
"211 509 OFFCURVE",
"164 509 CURVE SMOOTH",
"83 509 OFFCURVE",
"48 422 OFFCURVE",
"40 405 CURVE",
"79 382 LINE"
);
}
);
width = 500;
}
);
unicode = 1C7B;
},
{
glyphname = uni1C7C;
lastChange = "2017-02-01 17:11:38 +0000";
layers = (
{
layerId = UUID0;
paths = (
{
closed = 1;
nodes = (
"286 419 LINE",
"286 487 LINE",
"40 487 LINE",
"40 419 LINE"
);
}
);
width = 326;
}
);
unicode = 1C7C;
},
{
glyphname = uni1C7D;
lastChange = "2017-02-01 17:11:38 +0000";
layers = (
{
layerId = UUID0;
paths = (
{
closed = 1;
nodes = (
"210 -4 OFFCURVE",
"483 84 OFFCURVE",
"483 393 CURVE SMOOTH",
"483 601 OFFCURVE",
"370 725 OFFCURVE",
"254 725 CURVE SMOOTH",
"183 725 OFFCURVE",
"95 685 OFFCURVE",
"95 551 CURVE SMOOTH",
"95 370 OFFCURVE",
"300 243 OFFCURVE",
"360 227 CURVE",
"338 180 OFFCURVE",
"253 103 OFFCURVE",
"181 79 CURVE",
"115 278 LINE",
"40 253 LINE",
"131 -10 LINE"
);
},
{
closed = 1;
nodes = (
"313 315 OFFCURVE",
"183 425 OFFCURVE",
"183 547 CURVE SMOOTH",
"183 621 OFFCURVE",
"216 650 OFFCURVE",
"253 650 CURVE SMOOTH",
"343 650 OFFCURVE",
"395 476 OFFCURVE",
"395 397 CURVE SMOOTH",
"395 344 OFFCURVE",
"389 309 OFFCURVE",
"384 291 CURVE"
);
}
);
width = 532;
}
);
unicode = 1C7D;
},
{
glyphname = uni1C7E;
lastChange = "2017-02-01 17:11:38 +0000";
layers = (
{
layerId = UUID0;
paths = (
{
closed = 1;
nodes = (
"168 83 LINE",
"168 510 LINE",
"100 510 LINE",
"100 83 LINE"
);
}
);
width = 268;
}
);
unicode = 1C7E;
},
{
glyphname = uni1C7F;
lastChange = "2017-02-01 17:11:38 +0000";
layers = (
{
layerId = UUID0;
paths = (
{
closed = 1;
nodes = (
"401 83 LINE",
"401 510 LINE",
"333 510 LINE",
"333 83 LINE"
);
},
{
closed = 1;
nodes = (
"168 83 LINE",
"168 510 LINE",
"100 510 LINE",
"100 83 LINE"
);
}
);
width = 501;
}
);
unicode = 1C7F;
},
